<svg width="176" height="128" viewBox="0 0 176 128" fill="none" xmlns="http://www.w3.org/2000/svg">
<mask id="path-1-inside-1_1_43945" fill="white">
<path d="M0 64C0 28.6538 28.6538 0 64 0H112C147.346 0 176 28.6538 176 64C176 99.3462 147.346 128 112 128H64C28.6538 128 0 99.3462 0 64Z"/>
</mask>
<path d="M0 64C0 28.6538 28.6538 0 64 0H112C147.346 0 176 28.6538 176 64C176 99.3462 147.346 128 112 128H64C28.6538 128 0 99.3462 0 64Z" fill="url(#paint0_linear_1_43945)"/>
<path d="M0 64C0 28.1015 29.1015 -1 65 -1H111C146.899 -1 176 28.1015 176 64C176 29.2061 147.346 1 112 1H64C28.6538 1 0 29.2061 0 64ZM176 128H0H176ZM0 128V0V128ZM176 0V128V0Z" fill="white" fill-opacity="0.1" mask="url(#path-1-inside-1_1_43945)"/>
<defs>
<linearGradient id="paint0_linear_1_43945" x1="88" y1="0" x2="88" y2="128" gradientUnits="userSpaceOnUse">
<stop stop-color="white" stop-opacity="0.02"/>
<stop offset="1" stop-color="white" stop-opacity="0.01"/>
</linearGradient>
</defs>
</svg>
