<svg width="179" height="46" viewBox="0 0 179 46" fill="none" xmlns="http://www.w3.org/2000/svg">
<mask id="mask0_1_44080" style="mask-type:luminance" maskUnits="userSpaceOnUse" x="0" y="0" width="178" height="46">
<path d="M0 0H177.455V46H0V0Z" fill="white"/>
</mask>
<g mask="url(#mask0_1_44080)">
<path fill-rule="evenodd" clip-rule="evenodd" d="M11.4954 29.6916V34.4904L0 22.9904L2.39761 20.5918L11.4954 29.6949V29.6916ZM16.2923 34.4904H11.4954L22.9908 45.9904L25.3884 43.5918L16.2923 34.4904ZM43.5758 25.3922L45.9751 22.9904L22.9843 -0.00964355L20.5899 2.39879L29.6861 11.4969H24.1896L17.8409 5.15879L15.4433 7.55736L19.3928 11.5068H16.6339V29.3581H34.4764V26.5981L38.4259 30.5475L40.8235 28.1489L34.4764 21.7976V16.299L43.5758 25.3922ZM12.6942 10.3009L10.2884 12.7028L12.8634 15.2755L15.2626 12.8769L12.6942 10.3009ZM33.1101 30.7249L30.7125 33.1268L33.2841 35.7028L35.685 33.3009L33.1101 30.7249ZM7.54756 15.4496L5.14666 17.8515L11.4954 24.2028V19.4007L7.54756 15.4496ZM26.5905 34.5002H21.7887L28.1375 40.8515L30.5384 38.4496L26.5905 34.5002Z" fill="white"/>
<path d="M174.323 34.4638C172.774 34.4638 171.564 34.0432 170.699 33.1988C169.835 32.356 169.403 31.1847 169.403 29.6995V20.4995H166.624V17.0577H169.418L169.914 12.4577H173.185V17.0577H177.451V20.5077H173.185V29.2034C173.175 29.6782 173.351 30.1365 173.676 30.4832C173.842 30.6608 174.044 30.8005 174.269 30.8927C174.493 30.9848 174.735 31.0273 174.978 31.0171H177.451V34.4638H174.323ZM157.618 34.7874C155.554 34.7874 153.894 34.2946 152.638 33.3089C151.389 32.3322 150.533 30.9394 150.225 29.3841H154.331C154.51 29.9821 154.909 30.4914 155.446 30.8084C156.104 31.1879 156.858 31.3736 157.618 31.344C159.807 31.344 160.908 30.7312 160.908 29.5467C160.908 28.9553 160.563 28.5052 159.875 28.1947C159.073 27.8533 158.236 27.6036 157.379 27.4504C156.385 27.26 155.403 27.0187 154.434 26.7276C153.445 26.4358 152.568 25.8516 151.917 25.0519C151.234 24.2321 150.887 23.1593 150.887 21.8286C150.877 21.1281 151.028 20.4346 151.329 19.802C151.63 19.1695 152.073 18.6149 152.623 18.1814C153.784 17.2122 155.393 16.7292 157.451 16.7324C159.507 16.7324 161.129 17.1924 162.355 18.1092C163.559 19.0221 164.387 20.3456 164.682 21.8286H160.571C160.134 20.7328 159.096 20.1857 157.459 20.1857C155.702 20.1857 154.83 20.7344 154.83 21.8352C154.833 22.0868 154.903 22.3331 155.033 22.5486C155.163 22.7641 155.348 22.9409 155.569 23.0607C156.131 23.4024 156.756 23.6275 157.408 23.7212C158.223 23.8592 159.029 24.0448 159.822 24.2797C160.645 24.513 161.451 24.8022 162.236 25.1439C163 25.4905 163.647 26.054 164.097 26.7621C164.616 27.5967 164.875 28.5674 164.841 29.55C164.858 30.2819 164.7 31.0072 164.38 31.6656C164.06 32.324 163.587 32.8964 163.002 33.3352C161.778 34.3012 159.983 34.7858 157.618 34.7874ZM145.377 18.4706C144.115 17.3321 142.339 16.762 140.067 16.762C138.247 16.762 136.723 17.2516 135.495 18.2307C134.273 19.1831 133.409 20.5204 133.043 22.0257H136.923C137.12 21.4557 137.498 20.9661 137.997 20.6293C138.602 20.222 139.322 20.0188 140.05 20.0494C140.964 19.9989 141.864 20.2912 142.574 20.8692C142.887 21.1601 143.131 21.5165 143.29 21.913C143.449 22.3094 143.519 22.7361 143.494 23.1626V23.9972H139.07C137.017 23.9972 135.409 24.5064 134.252 25.5299C133.694 26.0064 133.248 26.6007 132.948 27.27C132.647 27.9393 132.498 28.6669 132.512 29.4005C132.489 30.128 132.621 30.8522 132.9 31.5243C133.18 32.1965 133.599 32.801 134.132 33.2974C135.211 34.3192 136.641 34.8302 138.423 34.8302C139.527 34.8555 140.619 34.6012 141.599 34.0909C142.387 33.7081 143.052 33.1134 143.523 32.3741H143.683L143.99 34.5213H147.276V23.1741C147.277 21.1813 146.645 19.6124 145.377 18.4706ZM143.512 27.7692C143.535 28.2855 143.444 28.8005 143.245 29.2776C143.046 29.7546 142.745 30.182 142.362 30.5292C141.602 31.206 140.563 31.5444 139.244 31.5477C138.285 31.5477 137.549 31.3259 137.043 30.8939C136.797 30.6944 136.6 30.4411 136.467 30.1534C136.334 29.8658 136.269 29.5514 136.276 29.2346C136.276 27.7002 137.278 26.9412 139.244 26.9412H143.512V27.7692ZM122.656 34.8252C120.168 34.8252 118.178 34.0252 116.687 32.4267C115.199 30.8282 114.448 28.6185 114.448 25.7895C114.448 22.9638 115.194 20.7624 116.677 19.1606C118.16 17.5588 120.157 16.762 122.658 16.762C124.689 16.762 126.372 17.3042 127.709 18.3901C129.02 19.4355 129.954 20.8805 130.369 22.5054H126.605C126.236 21.7851 125.668 21.186 124.968 20.7795C124.268 20.3729 123.466 20.1759 122.658 20.212C122.045 20.1905 121.435 20.3109 120.876 20.5636C120.317 20.8164 119.824 21.1947 119.436 21.6692C118.618 22.6434 118.209 24.0185 118.209 25.7912C118.209 27.5638 118.619 28.9372 119.436 29.9147C119.824 30.3902 120.317 30.7696 120.875 31.0232C121.434 31.2769 122.044 31.3979 122.658 31.3769C123.467 31.4113 124.269 31.213 124.968 30.8053C125.668 30.3977 126.236 29.7978 126.605 29.0769H130.369C129.955 30.7044 129.021 32.1522 127.709 33.2004C126.377 34.2831 124.691 34.8252 122.656 34.8252ZM100.452 41.0779L103.079 34.5032L96.0227 17.0972H100.128L104.891 29.4153H105.047L109.817 17.0972H113.923L104.391 41.0779H100.452ZM92.4756 18.4706C91.2111 17.3321 89.4375 16.762 87.1597 16.762C85.3418 16.762 83.8195 17.2516 82.5895 18.2307C81.3723 19.184 80.5138 20.5217 80.1541 22.0257H84.033C84.2301 21.4557 84.6061 20.9661 85.1054 20.6293C85.7113 20.2235 86.4306 20.0214 87.1581 20.0494C88.2255 20.0494 89.0696 20.3221 89.6822 20.8692C89.9955 21.1596 90.2405 21.5159 90.3995 21.9125C90.5586 22.3091 90.6277 22.7361 90.6018 23.1626V23.9972H86.1564C84.1135 23.9972 82.5074 24.5064 81.3414 25.5299C80.7829 26.0059 80.337 26.6 80.036 27.2694C79.7349 27.9388 79.5863 28.6667 79.6007 29.4005C79.579 30.1254 79.712 30.8467 79.9909 31.5161C80.2699 32.1855 80.6883 32.7877 81.2183 33.2826C82.2972 34.3044 83.7275 34.8154 85.511 34.8154C86.6134 34.8404 87.7043 34.5861 88.6821 34.0761C89.4715 33.6932 90.1394 33.099 90.6116 32.3593H90.7677L91.0928 34.5065H94.3723V23.1593C94.3723 21.1764 93.74 19.6124 92.4756 18.4706ZM90.6034 27.7692C90.6265 28.2855 90.5354 28.8005 90.3367 29.2776C90.138 29.7546 89.8366 30.182 89.4539 30.5292C88.6919 31.206 87.6524 31.5444 86.3321 31.5477C85.3747 31.5477 84.6373 31.3259 84.1315 30.8939C83.8859 30.6939 83.6891 30.4405 83.5562 30.153C83.4233 29.8654 83.3578 29.5513 83.3646 29.2346C83.3761 27.7067 84.3664 26.9428 86.3321 26.9412H90.6018L90.6034 27.7692ZM71.1795 25.7912C71.7657 25.6351 72.3307 25.4133 72.866 25.1274C73.4901 24.7857 74.0747 24.375 74.6068 23.9019C75.2505 23.3088 75.7464 22.5728 76.0568 21.7547C76.4296 20.7936 76.6152 19.7684 76.5987 18.7367C76.5987 16.5484 75.9008 14.7939 74.5033 13.4747C73.1041 12.1554 71.2846 11.4999 69.0463 11.5065H59.5215V34.5065H63.627V25.9686H66.7406L72.6575 34.5032H77.2556L71.1795 25.7912ZM63.6253 22.3313V15.1241H68.7112C69.8772 15.1241 70.7968 15.4313 71.4701 16.072C72.1451 16.7127 72.4883 17.59 72.4883 18.7285C72.4883 19.8654 72.1484 20.7558 71.4652 21.3899C70.7145 22.0437 69.7398 22.381 68.7457 22.3313H63.6253Z" fill="white"/>
</g>
</svg>
