<svg width="179" height="46" viewBox="0 0 179 46" fill="none" xmlns="http://www.w3.org/2000/svg">
<mask id="mask0_1_43990" style="mask-type:luminance" maskUnits="userSpaceOnUse" x="0" y="0" width="178" height="46">
<path d="M0 0H177.455V46H0V0Z" fill="white"/>
</mask>
<g mask="url(#mask0_1_43990)">
<path fill-rule="evenodd" clip-rule="evenodd" d="M11.4954 29.6915V34.4902L0 22.9902L2.39761 20.5917L11.4954 29.6947V29.6915ZM16.2923 34.4902H11.4954L22.9908 45.9902L25.3884 43.5917L16.2923 34.4902ZM43.5758 25.3921L45.9751 22.9902L22.9843 -0.00976562L20.5899 2.39866L29.6861 11.4968H24.1896L17.8409 5.15866L15.4433 7.55723L19.3928 11.5067H16.6339V29.358H34.4764V26.598L38.4259 30.5474L40.8235 28.1488L34.4764 21.7975V16.2989L43.5758 25.3921ZM12.6942 10.3008L10.2884 12.7027L12.8634 15.2754L15.2626 12.8768L12.6942 10.3008ZM33.1101 30.7248L30.7125 33.1267L33.2841 35.7027L35.685 33.3008L33.1101 30.7248ZM7.54756 15.4495L5.14666 17.8514L11.4954 24.2027V19.4006L7.54756 15.4495ZM26.5905 34.5001H21.7887L28.1375 40.8514L30.5384 38.4495L26.5905 34.5001Z" fill="white"/>
<path d="M174.323 34.4637C172.774 34.4637 171.564 34.0431 170.699 33.1987C169.835 32.3559 169.403 31.1845 169.403 29.6994V20.4994H166.624V17.0576H169.418L169.914 12.4576H173.185V17.0576H177.451V20.5076H173.185V29.2033C173.175 29.678 173.351 30.1364 173.676 30.483C173.842 30.6607 174.044 30.8004 174.269 30.8925C174.493 30.9847 174.735 31.0271 174.978 31.017H177.451V34.4637H174.323ZM157.618 34.7873C155.554 34.7873 153.894 34.2945 152.638 33.3088C151.389 32.3321 150.533 30.9392 150.225 29.384H154.331C154.51 29.982 154.909 30.4913 155.446 30.8083C156.104 31.1878 156.858 31.3735 157.618 31.3439C159.807 31.3439 160.908 30.7311 160.908 29.5466C160.908 28.9552 160.563 28.505 159.875 28.1945C159.073 27.8532 158.236 27.6035 157.379 27.4503C156.385 27.2599 155.403 27.0186 154.434 26.7275C153.445 26.4356 152.568 25.8515 151.917 25.0518C151.234 24.232 150.887 23.1592 150.887 21.8285C150.877 21.128 151.028 20.4345 151.329 19.8019C151.63 19.1694 152.073 18.6148 152.623 18.1813C153.784 17.212 155.393 16.729 157.451 16.7323C159.507 16.7323 161.129 17.1923 162.355 18.109C163.559 19.022 164.387 20.3454 164.682 21.8285H160.571C160.134 20.7327 159.096 20.1856 157.459 20.1856C155.702 20.1856 154.83 20.7343 154.83 21.835C154.833 22.0867 154.903 22.333 155.033 22.5485C155.163 22.764 155.348 22.9408 155.569 23.0606C156.131 23.4023 156.756 23.6274 157.408 23.721C158.223 23.859 159.029 24.0447 159.822 24.2796C160.645 24.5129 161.451 24.802 162.236 25.1438C163 25.4904 163.647 26.0539 164.097 26.762C164.616 27.5966 164.875 28.5673 164.841 29.5499C164.858 30.2818 164.7 31.0071 164.38 31.6655C164.06 32.3239 163.587 32.8963 163.002 33.335C161.778 34.301 159.983 34.7857 157.618 34.7873ZM145.377 18.4705C144.115 17.332 142.339 16.7619 140.067 16.7619C138.247 16.7619 136.723 17.2515 135.495 18.2306C134.273 19.183 133.409 20.5203 133.043 22.0256H136.923C137.12 21.4555 137.498 20.966 137.997 20.6292C138.602 20.2218 139.322 20.0186 140.05 20.0493C140.964 19.9988 141.864 20.2911 142.574 20.869C142.887 21.1599 143.131 21.5164 143.29 21.9128C143.449 22.3093 143.519 22.736 143.494 23.1625V23.997H139.07C137.017 23.997 135.409 24.5063 134.252 25.5298C133.694 26.0063 133.248 26.6006 132.948 27.2699C132.647 27.9391 132.498 28.6668 132.512 29.4004C132.489 30.1279 132.621 30.8521 132.9 31.5242C133.18 32.1963 133.599 32.8009 134.132 33.2973C135.211 34.3191 136.641 34.83 138.423 34.83C139.527 34.8554 140.619 34.6011 141.599 34.0908C142.387 33.708 143.052 33.1133 143.523 32.374H143.683L143.99 34.5212H147.276V23.174C147.277 21.1812 146.645 19.6123 145.377 18.4705ZM143.512 27.769C143.535 28.2853 143.444 28.8004 143.245 29.2775C143.046 29.7545 142.745 30.1819 142.362 30.529C141.602 31.2059 140.563 31.5443 139.244 31.5476C138.285 31.5476 137.549 31.3258 137.043 30.8938C136.797 30.6943 136.6 30.441 136.467 30.1533C136.334 29.8657 136.269 29.5513 136.276 29.2345C136.276 27.7 137.278 26.941 139.244 26.941H143.512V27.769ZM122.656 34.8251C120.168 34.8251 118.178 34.025 116.687 32.4265C115.199 30.828 114.448 28.6184 114.448 25.7894C114.448 22.9637 115.194 20.7623 116.677 19.1605C118.16 17.5587 120.157 16.7619 122.658 16.7619C124.689 16.7619 126.372 17.304 127.709 18.39C129.02 19.4354 129.954 20.8803 130.369 22.5053H126.605C126.236 21.785 125.668 21.1859 124.968 20.7793C124.268 20.3728 123.466 20.1758 122.658 20.2119C122.045 20.1904 121.435 20.3107 120.876 20.5635C120.317 20.8162 119.824 21.1946 119.436 21.6691C118.618 22.6433 118.209 24.0184 118.209 25.791C118.209 27.5637 118.619 28.9371 119.436 29.9146C119.824 30.3901 120.317 30.7695 120.875 31.0231C121.434 31.2767 122.044 31.3978 122.658 31.3768C123.467 31.4112 124.269 31.2129 124.968 30.8052C125.668 30.3975 126.236 29.7977 126.605 29.0768H130.369C129.955 30.7043 129.021 32.1521 127.709 33.2003C126.377 34.283 124.691 34.8251 122.656 34.8251ZM100.452 41.0778L103.079 34.5031L96.0227 17.097H100.128L104.891 29.4152H105.047L109.817 17.097H113.923L104.391 41.0778H100.452ZM92.4756 18.4705C91.2111 17.332 89.4375 16.7619 87.1597 16.7619C85.3418 16.7619 83.8195 17.2515 82.5895 18.2306C81.3723 19.1839 80.5138 20.5216 80.1541 22.0256H84.033C84.2301 21.4555 84.6061 20.966 85.1054 20.6292C85.7113 20.2234 86.4306 20.0213 87.1581 20.0493C88.2255 20.0493 89.0696 20.322 89.6822 20.869C89.9955 21.1595 90.2405 21.5158 90.3995 21.9124C90.5586 22.309 90.6277 22.7359 90.6018 23.1625V23.997H86.1564C84.1135 23.997 82.5074 24.5063 81.3414 25.5298C80.7829 26.0058 80.337 26.5999 80.036 27.2693C79.7349 27.9387 79.5863 28.6665 79.6007 29.4004C79.579 30.1253 79.712 30.8466 79.9909 31.516C80.2699 32.1854 80.6883 32.7876 81.2183 33.2825C82.2972 34.3043 83.7275 34.8153 85.511 34.8153C86.6134 34.8403 87.7043 34.586 88.6821 34.076C89.4715 33.6931 90.1394 33.0989 90.6116 32.3592H90.7677L91.0928 34.5064H94.3723V23.1592C94.3723 21.1763 93.74 19.6123 92.4756 18.4705ZM90.6034 27.769C90.6265 28.2853 90.5354 28.8004 90.3367 29.2775C90.138 29.7545 89.8366 30.1819 89.4539 30.529C88.6919 31.2059 87.6524 31.5443 86.3321 31.5476C85.3747 31.5476 84.6373 31.3258 84.1315 30.8938C83.8859 30.6938 83.6891 30.4404 83.5562 30.1528C83.4233 29.8653 83.3578 29.5512 83.3646 29.2345C83.3761 27.7066 84.3664 26.9427 86.3321 26.941H90.6018L90.6034 27.769ZM71.1795 25.791C71.7657 25.635 72.3307 25.4132 72.866 25.1273C73.4901 24.7856 74.0747 24.3749 74.6068 23.9018C75.2505 23.3087 75.7464 22.5727 76.0568 21.7545C76.4296 20.7935 76.6152 19.7683 76.5987 18.7366C76.5987 16.5483 75.9008 14.7938 74.5033 13.4745C73.1041 12.1553 71.2846 11.4998 69.0463 11.5064H59.5215V34.5064H63.627V25.9685H66.7406L72.6575 34.5031H77.2556L71.1795 25.791ZM63.6253 22.3312V15.124H68.7112C69.8772 15.124 70.7968 15.4312 71.4701 16.0719C72.1451 16.7126 72.4883 17.5899 72.4883 18.7284C72.4883 19.8653 72.1484 20.7557 71.4652 21.3898C70.7145 22.0435 69.7398 22.3809 68.7457 22.3312H63.6253Z" fill="white"/>
</g>
</svg>
