<svg width="14" height="15" viewBox="0 0 14 15" fill="none" xmlns="http://www.w3.org/2000/svg">
<path d="M1.74219 7.49738C1.74219 7.66976 1.81394 7.83601 1.94169 7.95851L5.59044 11.6073C5.73569 11.7464 5.88531 11.8076 6.04106 11.8076C6.39631 11.8076 6.65181 11.5574 6.65181 11.2188C6.65211 11.137 6.636 11.056 6.60444 10.9805C6.57287 10.9051 6.5265 10.8367 6.46806 10.7795L5.21944 9.51338L3.60856 8.04163L4.89656 8.11951H11.6288C12.0007 8.11951 12.2562 7.86401 12.2562 7.49738C12.2562 7.13601 12.0007 6.88051 11.6288 6.88051H4.89656L3.60856 6.95926L5.21856 5.48663L6.46894 4.22051C6.52738 4.1633 6.57375 4.09494 6.60531 4.0195C6.63687 3.94405 6.65298 3.86304 6.65269 3.78126C6.65269 3.44263 6.39631 3.19238 6.04106 3.19238C5.88531 3.19238 5.73481 3.25363 5.60269 3.38138L1.94169 7.04151C1.87965 7.10012 1.83002 7.17059 1.79575 7.24876C1.76148 7.32692 1.74326 7.41117 1.74219 7.49651V7.49738Z" fill="#E6E6E6"/>
</svg>
