<svg width="125" height="126" viewBox="0 0 125 126" fill="none" xmlns="http://www.w3.org/2000/svg">
<g clip-path="url(#clip0_1_44173)">
<path d="M6.25 13.1895C9.70178 13.1895 12.5 10.3912 12.5 6.93945C12.5 3.48767 9.70178 0.689453 6.25 0.689453C2.79822 0.689453 0 3.48767 0 6.93945C0 10.3912 2.79822 13.1895 6.25 13.1895Z" fill="#43729A"/>
<path d="M37.5 13.1895C40.9518 13.1895 43.75 10.3912 43.75 6.93945C43.75 3.48767 40.9518 0.689453 37.5 0.689453C34.0482 0.689453 31.25 3.48767 31.25 6.93945C31.25 10.3912 34.0482 13.1895 37.5 13.1895Z" fill="#43729A" fill-opacity="0.55"/>
<path d="M75 13.1895C78.4518 13.1895 81.25 10.3912 81.25 6.93945C81.25 3.48767 78.4518 0.689453 75 0.689453C71.5482 0.689453 68.75 3.48767 68.75 6.93945C68.75 10.3912 71.5482 13.1895 75 13.1895Z" fill="#25425D" fill-opacity="0.49"/>
<path d="M112.5 13.1895C115.952 13.1895 118.75 10.3912 118.75 6.93945C118.75 3.48767 115.952 0.689453 112.5 0.689453C109.048 0.689453 106.25 3.48767 106.25 6.93945C106.25 10.3912 109.048 13.1895 112.5 13.1895Z" fill="#122437" fill-opacity="0.46"/>
<path d="M6.25 44.4395C9.70178 44.4395 12.5 41.6412 12.5 38.1895C12.5 34.7377 9.70178 31.9395 6.25 31.9395C2.79822 31.9395 0 34.7377 0 38.1895C0 41.6412 2.79822 44.4395 6.25 44.4395Z" fill="#43729A"/>
<path d="M37.5 44.4395C40.9518 44.4395 43.75 41.6412 43.75 38.1895C43.75 34.7377 40.9518 31.9395 37.5 31.9395C34.0482 31.9395 31.25 34.7377 31.25 38.1895C31.25 41.6412 34.0482 44.4395 37.5 44.4395Z" fill="#43729A" fill-opacity="0.55"/>
<path d="M75 44.4395C78.4518 44.4395 81.25 41.6412 81.25 38.1895C81.25 34.7377 78.4518 31.9395 75 31.9395C71.5482 31.9395 68.75 34.7377 68.75 38.1895C68.75 41.6412 71.5482 44.4395 75 44.4395Z" fill="#25425D" fill-opacity="0.49"/>
<path d="M112.5 44.4395C115.952 44.4395 118.75 41.6412 118.75 38.1895C118.75 34.7377 115.952 31.9395 112.5 31.9395C109.048 31.9395 106.25 34.7377 106.25 38.1895C106.25 41.6412 109.048 44.4395 112.5 44.4395Z" fill="#122437" fill-opacity="0.46"/>
<path d="M6.25 81.9395C9.70178 81.9395 12.5 79.1412 12.5 75.6895C12.5 72.2377 9.70178 69.4395 6.25 69.4395C2.79822 69.4395 0 72.2377 0 75.6895C0 79.1412 2.79822 81.9395 6.25 81.9395Z" fill="#43729A"/>
<path d="M37.5 81.9395C40.9518 81.9395 43.75 79.1412 43.75 75.6895C43.75 72.2377 40.9518 69.4395 37.5 69.4395C34.0482 69.4395 31.25 72.2377 31.25 75.6895C31.25 79.1412 34.0482 81.9395 37.5 81.9395Z" fill="#43729A" fill-opacity="0.55"/>
<path d="M75 81.9395C78.4518 81.9395 81.25 79.1412 81.25 75.6895C81.25 72.2377 78.4518 69.4395 75 69.4395C71.5482 69.4395 68.75 72.2377 68.75 75.6895C68.75 79.1412 71.5482 81.9395 75 81.9395Z" fill="#25425D" fill-opacity="0.49"/>
<path d="M112.5 81.9395C115.952 81.9395 118.75 79.1412 118.75 75.6895C118.75 72.2377 115.952 69.4395 112.5 69.4395C109.048 69.4395 106.25 72.2377 106.25 75.6895C106.25 79.1412 109.048 81.9395 112.5 81.9395Z" fill="#122437" fill-opacity="0.46"/>
<path d="M6.25 119.439C9.70178 119.439 12.5 116.641 12.5 113.189C12.5 109.738 9.70178 106.939 6.25 106.939C2.79822 106.939 0 109.738 0 113.189C0 116.641 2.79822 119.439 6.25 119.439Z" fill="#43729A"/>
<path d="M37.5 119.439C40.9518 119.439 43.75 116.641 43.75 113.189C43.75 109.738 40.9518 106.939 37.5 106.939C34.0482 106.939 31.25 109.738 31.25 113.189C31.25 116.641 34.0482 119.439 37.5 119.439Z" fill="#43729A" fill-opacity="0.55"/>
<path d="M75 119.439C78.4518 119.439 81.25 116.641 81.25 113.189C81.25 109.738 78.4518 106.939 75 106.939C71.5482 106.939 68.75 109.738 68.75 113.189C68.75 116.641 71.5482 119.439 75 119.439Z" fill="#25425D" fill-opacity="0.49"/>
<path d="M112.5 119.439C115.952 119.439 118.75 116.641 118.75 113.189C118.75 109.738 115.952 106.939 112.5 106.939C109.048 106.939 106.25 109.738 106.25 113.189C106.25 116.641 109.048 119.439 112.5 119.439Z" fill="#122437" fill-opacity="0.46"/>
</g>
<defs>
<clipPath id="clip0_1_44173">
<rect width="125" height="125" fill="white" transform="translate(0 0.689453)"/>
</clipPath>
</defs>
</svg>
