<svg width="348" height="360" viewBox="0 0 348 360" fill="none" xmlns="http://www.w3.org/2000/svg">
<mask id="mask0_1_43933" style="mask-type:alpha" maskUnits="userSpaceOnUse" x="0" y="0" width="345" height="357">
<path fill-rule="evenodd" clip-rule="evenodd" d="M180.425 2.01052C179.142 1.99651 177.859 1.99649 176.575 2.01049C176.022 2.01651 175.57 1.5737 175.564 1.02145C175.558 0.469197 176.001 0.0166272 176.553 0.0106065C177.851 -0.00354862 179.149 -0.00353169 180.447 0.0106345C180.999 0.016663 181.442 0.469239 181.436 1.02149C181.43 1.57374 180.978 2.01654 180.425 2.01052ZM169.822 1.20937C169.853 1.76084 169.43 2.23229 168.878 2.2624C167.597 2.33233 166.317 2.41626 165.036 2.51422C164.486 2.55635 164.005 2.14409 163.963 1.59342C163.921 1.04274 164.333 0.562177 164.884 0.520047C166.178 0.420982 167.474 0.336097 168.769 0.26537C169.321 0.235264 169.792 0.657908 169.822 1.20937ZM187.178 1.20949C187.208 0.658028 187.679 0.235388 188.231 0.265498C189.527 0.336275 190.823 0.421184 192.117 0.520202C192.667 0.562334 193.08 1.0429 193.038 1.59357C192.995 2.14425 192.515 2.55651 191.964 2.51437C190.684 2.41647 189.404 2.33251 188.122 2.26252C187.57 2.23241 187.148 1.76095 187.178 1.20949ZM158.246 2.15653C158.312 2.70485 157.921 3.20294 157.372 3.26905C156.099 3.42261 154.826 3.59015 153.555 3.77169C153.008 3.84975 152.502 3.46981 152.423 2.92307C152.345 2.37633 152.725 1.86983 153.272 1.79177C154.558 1.60817 155.845 1.43874 157.133 1.28343C157.681 1.21732 158.179 1.60822 158.246 2.15653ZM198.755 2.15665C198.821 1.60834 199.319 1.21744 199.867 1.28354C201.156 1.43891 202.443 1.60834 203.728 1.79182C204.275 1.86987 204.655 2.37637 204.577 2.92311C204.498 3.46985 203.992 3.84979 203.445 3.77174C202.174 3.59033 200.902 3.42279 199.628 3.26916C199.079 3.20306 198.688 2.70497 198.755 2.15665ZM146.756 3.85883C146.858 4.40165 146.5 4.92424 145.957 5.02607C145.327 5.14439 144.696 5.26619 144.067 5.39148C143.437 5.51677 142.808 5.64544 142.18 5.77749C141.639 5.89113 141.109 5.54513 140.995 5.00466C140.882 4.4642 141.228 3.93394 141.768 3.82029C142.403 3.68675 143.039 3.55662 143.676 3.42991C144.313 3.3032 144.951 3.18002 145.589 3.06036C146.131 2.95853 146.654 3.31602 146.756 3.85883ZM210.245 3.85886C210.346 3.31604 210.869 2.95855 211.412 3.06038C212.687 3.29965 213.961 3.5529 215.231 3.82008C215.772 3.93373 216.118 4.46399 216.004 5.00445C215.89 5.54492 215.36 5.89093 214.82 5.77728C213.563 5.51309 212.304 5.26268 211.043 5.02609C210.5 4.92426 210.143 4.40168 210.245 3.85886ZM221.599 6.30887C221.736 5.77388 222.28 5.45133 222.815 5.58844C224.072 5.91057 225.326 6.24653 226.577 6.5963C227.109 6.74506 227.419 7.29681 227.271 7.82869C227.122 8.36056 226.57 8.67115 226.038 8.5224C224.802 8.17654 223.562 7.84434 222.319 7.52583C221.784 7.38872 221.461 6.84387 221.599 6.30887ZM135.401 6.30903C135.538 6.84402 135.216 7.38887 134.681 7.52598C133.437 7.84484 132.197 8.17707 130.961 8.52257C130.429 8.67132 129.878 8.36073 129.729 7.82886C129.58 7.29698 129.891 6.74522 130.423 6.59648C131.672 6.24706 132.926 5.91107 134.184 5.58859C134.719 5.45148 135.264 5.77403 135.401 6.30903ZM232.768 9.49636C232.94 8.97148 233.505 8.68527 234.03 8.85708C235.263 9.26068 236.492 9.67795 237.717 10.1089C238.238 10.2921 238.512 10.863 238.329 11.384C238.146 11.905 237.575 12.1788 237.054 11.9956C235.842 11.5695 234.627 11.1569 233.407 10.7578C232.883 10.586 232.596 10.0212 232.768 9.49636ZM124.231 9.4965C124.403 10.0214 124.117 10.5862 123.592 10.758C122.372 11.1574 121.156 11.57 119.946 11.9957C119.425 12.1789 118.854 11.9051 118.671 11.3841C118.488 10.8631 118.761 10.2922 119.282 10.1089C120.506 9.67849 121.736 9.26121 122.97 8.85721C123.495 8.6854 124.06 8.97162 124.231 9.4965ZM243.705 13.4075C243.911 12.895 244.493 12.6463 245.006 12.8521C245.608 13.0939 246.209 13.339 246.809 13.5876C247.409 13.8361 248.007 14.0879 248.604 14.3427C249.112 14.5596 249.348 15.1472 249.131 15.6551C248.914 16.163 248.327 16.3989 247.819 16.182C247.229 15.93 246.637 15.6811 246.044 15.4353C245.45 15.1896 244.856 14.9472 244.26 14.7081C243.748 14.5023 243.499 13.92 243.705 13.4075ZM113.294 13.4076C113.5 13.9201 113.252 14.5024 112.739 14.7082C111.548 15.1866 110.362 15.6778 109.182 16.1818C108.674 16.3987 108.086 16.1628 107.869 15.6549C107.652 15.147 107.888 14.5594 108.396 14.3425C109.59 13.8328 110.789 13.336 111.994 12.8522C112.506 12.6464 113.089 12.8951 113.294 13.4076ZM254.364 18.0258C254.602 17.5278 255.2 17.3178 255.698 17.5566C256.869 18.1184 258.033 18.6925 259.19 19.279C259.683 19.5286 259.88 20.1304 259.63 20.623C259.381 21.1157 258.779 21.3126 258.286 21.063C257.142 20.4831 255.991 19.9154 254.833 19.3599C254.335 19.1211 254.125 18.5238 254.364 18.0258ZM102.636 18.0258C102.875 18.5238 102.665 19.1211 102.167 19.3599C101.01 19.9151 99.8588 20.4828 98.714 21.063C98.2214 21.3127 97.6196 21.1157 97.37 20.6231C97.1203 20.1304 97.3173 19.5287 97.8099 19.279C98.9677 18.6923 100.132 18.1181 101.302 17.5567C101.8 17.3178 102.398 17.5279 102.636 18.0258ZM92.3036 23.3311C92.5745 23.8124 92.404 24.4221 91.9227 24.693C90.8043 25.3226 89.6927 25.9644 88.588 26.6183C88.1128 26.8996 87.4995 26.7424 87.2181 26.2672C86.9368 25.7919 87.094 25.1786 87.5692 24.8972C88.6864 24.2359 89.8106 23.5869 90.9417 22.9502C91.4229 22.6793 92.0327 22.8498 92.3036 23.3311ZM264.697 23.3311C264.968 22.8499 265.578 22.6793 266.059 22.9502C267.191 23.5873 268.315 24.2363 269.431 24.8973C269.906 25.1786 270.064 25.792 269.782 26.2672C269.501 26.7425 268.888 26.8997 268.412 26.6183C267.308 25.9648 266.197 25.323 265.078 24.6931C264.596 24.4222 264.426 23.8124 264.697 23.3311ZM82.3397 29.3007C82.6415 29.7633 82.5112 30.3829 82.0486 30.6847C80.9739 31.3859 79.9066 32.0991 78.8469 32.824C78.3911 33.1358 77.7688 33.019 77.457 32.5632C77.1452 32.1074 77.2619 31.4851 77.7177 31.1732C78.7894 30.4401 79.8688 29.7189 80.9557 29.0097C81.4182 28.7079 82.0379 28.8382 82.3397 29.3007ZM274.661 29.3008C274.962 28.8383 275.582 28.708 276.045 29.0098C277.132 29.7194 278.211 30.4406 279.282 31.1733C279.738 31.4852 279.855 32.1075 279.543 32.5633C279.231 33.0191 278.609 33.1359 278.153 32.8241C277.094 32.0995 276.027 31.3864 274.952 30.6847C274.489 30.3829 274.359 29.7633 274.661 29.3008ZM72.7875 35.9092C73.1189 36.351 73.0294 36.9779 72.5876 37.3093C71.5613 38.0791 70.543 38.8605 69.5328 39.6533C69.0984 39.9942 68.4698 39.9185 68.1288 39.484C67.7878 39.0495 67.8636 38.4209 68.2981 38.0799C69.3197 37.2782 70.3496 36.488 71.3875 35.7094C71.8293 35.378 72.4561 35.4674 72.7875 35.9092ZM284.213 35.9095C284.544 35.4677 285.171 35.3782 285.613 35.7096C286.651 36.4887 287.681 37.2789 288.702 38.0803C289.137 38.4212 289.212 39.0498 288.872 39.4843C288.531 39.9188 287.902 39.9946 287.467 39.6536C286.458 38.8612 285.439 38.0798 284.413 37.3095C283.971 36.9781 283.881 36.3513 284.213 35.9095ZM63.6879 43.1285C64.0475 43.5477 63.9992 44.179 63.5801 44.5386C62.6065 45.3739 61.6414 46.2202 60.685 47.0776C60.2738 47.4462 59.6416 47.4117 59.2729 47.0005C58.9042 46.5892 58.9388 45.957 59.35 45.5884C60.3172 44.7213 61.2932 43.8654 62.2778 43.0207C62.697 42.6611 63.3283 42.7094 63.6879 43.1285ZM293.312 43.1287C293.672 42.7095 294.303 42.6612 294.722 43.0208C295.707 43.8659 296.683 44.7218 297.65 45.5884C298.061 45.957 298.096 46.5893 297.727 47.0005C297.359 47.4117 296.726 47.4463 296.315 47.0776C295.359 46.2208 294.394 45.3744 293.42 44.5388C293.001 44.1792 292.953 43.5479 293.312 43.1287ZM55.0804 50.9273C55.4666 51.322 55.4597 51.9552 55.0649 52.3414C54.6063 52.7902 54.1499 53.2416 53.6958 53.6957C53.2416 54.1498 52.7902 54.6063 52.3414 55.0649C51.9552 55.4597 51.3221 55.4666 50.9273 55.0803C50.5325 54.6941 50.5256 54.061 50.9119 53.6662C51.3657 53.2024 51.8223 52.7408 52.2815 52.2815C52.7408 51.8223 53.2024 51.3657 53.6662 50.9118C54.061 50.5256 54.6941 50.5325 55.0804 50.9273ZM301.92 50.9275C302.306 50.5328 302.939 50.5259 303.334 50.9121C304.262 51.8197 305.18 52.7376 306.088 53.6657C306.474 54.0605 306.467 54.6936 306.072 55.0799C305.678 55.4661 305.045 55.4592 304.658 55.0644C303.76 54.1467 302.853 53.2391 301.936 52.3417C301.541 51.9554 301.534 51.3223 301.92 50.9275ZM309.999 59.2726C310.411 58.9039 311.043 58.9384 311.412 59.3497C312.278 60.3158 313.134 61.2918 313.979 62.2774C314.339 62.6966 314.29 63.3279 313.871 63.6875C313.452 64.0471 312.821 63.9988 312.461 63.5796C311.625 62.605 310.779 61.64 309.922 60.6847C309.554 60.2735 309.588 59.6412 309.999 59.2726ZM47.0005 59.2729C47.4117 59.6415 47.4462 60.2738 47.0776 60.685C46.2202 61.6414 45.3739 62.6064 44.5386 63.5801C44.179 63.9992 43.5477 64.0475 43.1285 63.6879C42.7094 63.3283 42.6611 62.697 43.0207 62.2778C43.8654 61.2932 44.7213 60.3172 45.5884 59.35C45.957 58.9387 46.5893 58.9042 47.0005 59.2729ZM317.516 68.1284C317.95 67.7874 318.579 67.8632 318.92 68.2977C319.721 69.3182 320.511 70.3482 321.29 71.3872C321.622 71.829 321.532 72.4559 321.091 72.7873C320.649 73.1187 320.022 73.0292 319.691 72.5874C318.92 71.5599 318.138 70.5416 317.346 69.5324C317.006 69.098 317.081 68.4694 317.516 68.1284ZM39.484 68.1288C39.9185 68.4697 39.9943 69.0984 39.6533 69.5328C38.8605 70.543 38.0791 71.5613 37.3093 72.5876C36.9779 73.0294 36.3511 73.1189 35.9093 72.7875C35.4675 72.4561 35.378 71.8293 35.7094 71.3875C36.488 70.3495 37.2782 69.3197 38.08 68.2981C38.4209 67.8636 39.0495 67.7878 39.484 68.1288ZM324.437 77.4565C324.892 77.1447 325.515 77.2615 325.826 77.7173C326.193 78.2529 326.556 78.7908 326.917 79.3308C327.278 79.8708 327.636 80.4126 327.991 80.9561C328.292 81.4186 328.162 82.0382 327.7 82.34C327.237 82.6418 326.617 82.5116 326.316 82.049C325.965 81.5116 325.611 80.9759 325.254 80.4419C324.898 79.908 324.538 79.3761 324.176 78.8465C323.864 78.3907 323.981 77.7684 324.437 77.4565ZM32.5632 77.457C33.019 77.7688 33.1358 78.3911 32.824 78.8469C32.0991 79.9066 31.3859 80.9739 30.6847 82.0486C30.3829 82.5112 29.7633 82.6415 29.3008 82.3397C28.8382 82.0379 28.7079 81.4182 29.0097 80.9557C29.7189 79.8688 30.4401 78.7894 31.1732 77.7177C31.4851 77.2619 32.1074 77.1451 32.5632 77.457ZM330.733 87.2181C331.208 86.9368 331.822 87.0939 332.103 87.5692C332.765 88.687 333.414 89.8112 334.05 90.9417C334.321 91.423 334.15 92.0328 333.669 92.3037C333.188 92.5746 332.578 92.4041 332.307 91.9228C331.678 90.8049 331.036 89.6933 330.382 88.588C330.101 88.1128 330.258 87.4995 330.733 87.2181ZM26.2672 87.2181C26.7424 87.4995 26.8996 88.1128 26.6183 88.5881C25.9644 89.6927 25.3226 90.8043 24.693 91.9227C24.4221 92.404 23.8124 92.5745 23.3311 92.3036C22.8498 92.0327 22.6793 91.4229 22.9502 90.9417C23.5869 89.8106 24.2359 88.6864 24.8972 87.5692C25.1786 87.094 25.7919 86.9368 26.2672 87.2181ZM20.6231 97.37C21.1157 97.6196 21.3127 98.2214 21.063 98.714C20.4828 99.8588 19.9151 101.01 19.36 102.167C19.1211 102.665 18.5238 102.875 18.0258 102.637C17.5279 102.398 17.3178 101.8 17.5567 101.302C18.1181 100.132 18.6923 98.9677 19.279 97.8099C19.5287 97.3173 20.1304 97.1203 20.6231 97.37ZM336.377 97.3702C336.87 97.1206 337.472 97.3175 337.721 97.8102C338.308 98.9686 338.883 100.133 339.444 101.303C339.683 101.801 339.472 102.398 338.974 102.637C338.477 102.876 337.879 102.666 337.64 102.168C337.086 101.011 336.518 99.8597 335.937 98.7143C335.688 98.2216 335.885 97.6199 336.377 97.3702ZM15.6549 107.869C16.1628 108.086 16.3987 108.674 16.1818 109.182C15.6778 110.362 15.1866 111.548 14.7082 112.739C14.5024 113.252 13.9201 113.5 13.4076 113.295C12.8951 113.089 12.6464 112.506 12.8522 111.994C13.336 110.789 13.8328 109.59 14.3425 108.396C14.5594 107.888 15.147 107.652 15.6549 107.869ZM341.345 107.869C341.853 107.652 342.441 107.888 342.658 108.396C343.168 109.59 343.664 110.79 344.148 111.994C344.354 112.507 344.105 113.089 343.592 113.295C343.08 113.5 342.498 113.252 342.292 112.739C341.814 111.548 341.323 110.362 340.818 109.182C340.601 108.674 340.837 108.086 341.345 107.869ZM11.3841 118.671C11.9051 118.854 12.1789 119.425 11.9957 119.946C11.5701 121.156 11.1575 122.372 10.758 123.592C10.5862 124.117 10.0214 124.403 9.4965 124.231C8.97162 124.06 8.6854 123.495 8.85721 122.97C9.26121 121.736 9.67849 120.507 10.109 119.283C10.2922 118.761 10.8631 118.488 11.3841 118.671ZM7.82885 129.729C8.36073 129.878 8.67132 130.429 8.52257 130.961C8.17707 132.197 7.84484 133.437 7.52598 134.681C7.38887 135.216 6.84402 135.538 6.30902 135.401C5.77403 135.264 5.45148 134.719 5.58859 134.184C5.91106 132.926 6.24706 131.672 6.59647 130.423C6.74522 129.891 7.29698 129.58 7.82885 129.729ZM5.00466 140.995C5.54513 141.109 5.89113 141.639 5.77749 142.18C5.64544 142.808 5.51677 143.437 5.39148 144.067C5.26619 144.697 5.14439 145.327 5.02607 145.957C4.92424 146.5 4.40165 146.858 3.85883 146.756C3.31602 146.654 2.95853 146.132 3.06036 145.589C3.18002 144.951 3.3032 144.313 3.42991 143.676C3.55662 143.039 3.68675 142.403 3.82029 141.768C3.93394 141.228 4.4642 140.882 5.00466 140.995ZM2.92307 152.424C3.46981 152.502 3.84975 153.008 3.77169 153.555C3.59015 154.826 3.42261 156.099 3.26905 157.373C3.20294 157.921 2.70484 158.312 2.15653 158.246C1.60822 158.18 1.21732 157.681 1.28343 157.133C1.43873 155.845 1.60817 154.558 1.79177 153.272C1.86983 152.725 2.37633 152.346 2.92307 152.424ZM1.59342 163.963C2.14409 164.005 2.55635 164.486 2.51422 165.036C2.41626 166.317 2.33233 167.597 2.2624 168.879C2.23229 169.43 1.76083 169.853 1.20937 169.823C0.657908 169.792 0.235263 169.321 0.265369 168.769C0.336097 167.474 0.420982 166.179 0.520046 164.884C0.562176 164.333 1.04274 163.921 1.59342 163.963ZM1.02145 175.564C1.5737 175.57 2.01651 176.023 2.01049 176.575C1.99649 177.859 1.99651 179.142 2.01052 180.425C2.01654 180.978 1.57374 181.43 1.02149 181.436C0.469239 181.442 0.0166631 181 0.0106346 180.447C-0.00353162 179.15 -0.00354867 177.851 0.0106063 176.553C0.016627 176.001 0.469196 175.558 1.02145 175.564ZM1.20949 187.178C1.76096 187.148 2.23241 187.571 2.26252 188.122C2.33251 189.404 2.41647 190.685 2.51438 191.964C2.55651 192.515 2.14425 192.995 1.59358 193.038C1.0429 193.08 0.562335 192.667 0.520203 192.117C0.421185 190.823 0.336276 189.527 0.265499 188.231C0.235389 187.68 0.658029 187.208 1.20949 187.178ZM2.15666 198.755C2.70497 198.689 3.20306 199.079 3.26917 199.628C3.42279 200.902 3.59033 202.175 3.77174 203.445C3.8498 203.992 3.46985 204.499 2.92311 204.577C2.37637 204.655 1.86987 204.275 1.79182 203.728C1.60835 202.443 1.43892 201.156 1.28355 199.867C1.21744 199.319 1.60834 198.821 2.15666 198.755ZM3.85886 210.245C4.40168 210.143 4.92426 210.5 5.02609 211.043C5.26269 212.304 5.51309 213.563 5.77728 214.82C5.89093 215.36 5.54492 215.89 5.00445 216.004C4.46399 216.118 3.93373 215.772 3.82008 215.231C3.5529 213.961 3.29966 212.687 3.06038 211.412C2.95855 210.869 3.31605 210.346 3.85886 210.245ZM6.30887 221.599C6.84387 221.462 7.38872 221.784 7.52583 222.319C7.84434 223.562 8.17654 224.802 8.5224 226.038C8.67115 226.57 8.36057 227.122 7.82869 227.271C7.29682 227.419 6.74506 227.109 6.59631 226.577C6.24653 225.326 5.91057 224.072 5.58845 222.816C5.45133 222.281 5.77388 221.736 6.30887 221.599ZM9.49637 232.768C10.0213 232.596 10.586 232.883 10.7579 233.408C11.1569 234.627 11.5695 235.842 11.9956 237.054C12.1789 237.575 11.905 238.146 11.384 238.329C10.863 238.512 10.2921 238.238 10.1089 237.717C9.67795 236.492 9.26068 235.263 8.85709 234.03C8.68527 233.505 8.97149 232.94 9.49637 232.768ZM13.4075 243.705C13.92 243.499 14.5023 243.748 14.7081 244.26C14.9472 244.856 15.1896 245.45 15.4354 246.044C15.6811 246.637 15.93 247.229 16.182 247.819C16.3989 248.327 16.163 248.914 15.6551 249.131C15.1472 249.348 14.5596 249.112 14.3427 248.604C14.0879 248.008 13.8362 247.409 13.5876 246.809C13.3391 246.209 13.0939 245.608 12.8521 245.006C12.6463 244.493 12.895 243.911 13.4075 243.705ZM18.0258 254.364C18.5238 254.125 19.1211 254.335 19.3599 254.833C19.9154 255.991 20.4831 257.142 21.063 258.286C21.3127 258.779 21.1157 259.381 20.623 259.63C20.1304 259.88 19.5287 259.683 19.279 259.19C18.6926 258.033 18.1184 256.869 17.5566 255.698C17.3178 255.2 17.5279 254.602 18.0258 254.364ZM23.3312 264.697C23.8124 264.426 24.4222 264.597 24.6931 265.078C25.323 266.197 25.9648 267.308 26.6184 268.412C26.8997 268.888 26.7425 269.501 26.2673 269.782C25.792 270.064 25.1787 269.907 24.8973 269.431C24.2364 268.315 23.5873 267.191 22.9503 266.059C22.6794 265.578 22.8499 264.968 23.3312 264.697ZM29.3008 274.661C29.7633 274.359 30.383 274.489 30.6848 274.952C31.3864 276.027 32.0995 277.094 32.8241 278.153C33.1359 278.609 33.0192 279.231 32.5633 279.543C32.1075 279.855 31.4852 279.738 31.1734 279.283C30.4406 278.211 29.7194 277.132 29.0098 276.045C28.708 275.582 28.8383 274.962 29.3008 274.661ZM35.9096 284.213C36.3513 283.881 36.9782 283.971 37.3096 284.413C38.0799 285.44 38.8613 286.458 39.6536 287.468C39.9946 287.902 39.9188 288.531 39.4843 288.872C39.0499 289.213 38.4213 289.137 38.0803 288.702C37.279 287.681 36.4887 286.651 35.7097 285.613C35.3783 285.171 35.4678 284.544 35.9096 284.213ZM43.1287 293.312C43.5479 292.953 44.1792 293.001 44.5388 293.42C45.3745 294.394 46.2208 295.359 47.0776 296.315C47.4463 296.726 47.4118 297.359 47.0005 297.727C46.5893 298.096 45.9571 298.061 45.5884 297.65C44.7219 296.684 43.866 295.708 43.0209 294.722C42.6613 294.303 42.7096 293.672 43.1287 293.312ZM50.9276 301.92C51.3223 301.534 51.9554 301.541 52.3417 301.936C53.2391 302.853 54.1468 303.761 55.0645 304.658C55.4592 305.045 55.4661 305.678 55.0799 306.073C54.6936 306.467 54.0605 306.474 53.6658 306.088C52.7377 305.18 51.8197 304.262 50.9121 303.334C50.5259 302.94 50.5328 302.306 50.9276 301.92ZM59.2726 310C59.6413 309.588 60.2735 309.554 60.6847 309.922C61.64 310.779 62.605 311.625 63.5797 312.461C63.9988 312.821 64.0471 313.452 63.6875 313.871C63.3279 314.29 62.6966 314.339 62.2774 313.979C61.2918 313.134 60.3158 312.278 59.3497 311.412C58.9385 311.043 58.904 310.411 59.2726 310ZM68.1284 317.516C68.4694 317.081 69.098 317.006 69.5325 317.347C70.5416 318.139 71.5599 318.92 72.5874 319.691C73.0292 320.022 73.1187 320.649 72.7873 321.091C72.4559 321.532 71.8291 321.622 71.3873 321.291C70.3482 320.511 69.3183 319.721 68.2977 318.92C67.8632 318.579 67.7874 317.95 68.1284 317.516ZM77.4566 324.437C77.7684 323.981 78.3907 323.864 78.8465 324.176C79.3762 324.538 79.908 324.898 80.442 325.254C80.9759 325.611 81.5116 325.965 82.049 326.316C82.5116 326.617 82.6419 327.237 82.3401 327.7C82.0383 328.162 81.4186 328.292 80.9561 327.991C80.4126 327.636 79.8708 327.278 79.3308 326.917C78.7908 326.557 78.2529 326.193 77.7173 325.827C77.2615 325.515 77.1447 324.892 77.4566 324.437ZM87.2181 330.733C87.4995 330.258 88.1128 330.101 88.5881 330.382C89.6933 331.036 90.805 331.678 91.9228 332.307C92.4041 332.578 92.5746 333.188 92.3037 333.669C92.0328 334.151 91.423 334.321 90.9418 334.05C89.8112 333.414 88.687 332.765 87.5692 332.103C87.094 331.822 86.9368 331.208 87.2181 330.733ZM97.3703 336.377C97.6199 335.885 98.2217 335.688 98.7143 335.937C99.8597 336.518 101.011 337.086 102.168 337.64C102.666 337.879 102.876 338.477 102.637 338.975C102.398 339.473 101.801 339.683 101.303 339.444C100.133 338.883 98.9686 338.309 97.8102 337.721C97.3176 337.472 97.1206 336.87 97.3703 336.377ZM107.869 341.345C108.086 340.837 108.674 340.602 109.182 340.818C110.362 341.323 111.548 341.814 112.739 342.292C113.252 342.498 113.5 343.08 113.295 343.593C113.089 344.105 112.507 344.354 111.994 344.148C110.79 343.664 109.59 343.168 108.396 342.658C107.888 342.441 107.652 341.853 107.869 341.345ZM118.671 345.616C118.854 345.095 119.425 344.821 119.946 345.005C121.157 345.43 122.373 345.843 123.592 346.242C124.117 346.414 124.404 346.979 124.232 347.504C124.06 348.029 123.495 348.315 122.97 348.143C121.737 347.739 120.507 347.322 119.283 346.891C118.762 346.708 118.488 346.137 118.671 345.616ZM129.729 349.171C129.878 348.639 130.43 348.329 130.961 348.478C132.197 348.823 133.437 349.155 134.681 349.474C135.216 349.611 135.538 350.156 135.401 350.691C135.264 351.226 134.719 351.549 134.184 351.412C132.927 351.089 131.673 350.753 130.423 350.404C129.891 350.255 129.58 349.703 129.729 349.171ZM140.996 351.996C141.109 351.455 141.64 351.109 142.18 351.223C143.436 351.487 144.695 351.737 145.957 351.974C146.5 352.076 146.857 352.599 146.755 353.141C146.653 353.684 146.131 354.042 145.588 353.94C144.312 353.7 143.039 353.447 141.769 353.18C141.228 353.066 140.882 352.536 140.996 351.996ZM152.423 354.077C152.501 353.53 153.008 353.15 153.554 353.228C154.825 353.41 156.097 353.577 157.372 353.731C157.92 353.797 158.311 354.295 158.245 354.844C158.179 355.392 157.681 355.783 157.133 355.717C155.843 355.561 154.556 355.392 153.272 355.208C152.725 355.13 152.345 354.624 152.423 354.077ZM163.962 355.407C164.004 354.856 164.485 354.444 165.036 354.486C166.315 354.584 167.596 354.668 168.878 354.738C169.43 354.768 169.852 355.239 169.822 355.791C169.792 356.342 169.321 356.765 168.769 356.735C167.472 356.664 166.177 356.579 164.883 356.48C164.332 356.438 163.92 355.957 163.962 355.407ZM175.563 355.979C175.569 355.426 176.022 354.984 176.574 354.99C177.216 354.997 177.858 355 178.5 355C179.052 355 179.5 355.448 179.5 356C179.5 356.552 179.052 357 178.5 357C177.851 357 177.201 356.997 176.552 356.989C176 356.983 175.557 356.531 175.563 355.979Z" fill="#E6E6E6"/>
</mask>
<g mask="url(#mask0_1_43933)">
<path d="M356 178.5C356 143.394 345.59 109.076 326.086 79.8864C306.582 50.6967 278.86 27.946 246.426 14.5115C213.992 1.07691 178.303 -2.43818 143.871 4.41069C109.44 11.2596 77.8125 28.1648 52.9886 52.9886C28.1648 77.8125 11.2596 109.44 4.41069 143.871C-2.43818 178.303 1.07691 213.992 14.5115 246.426C27.946 278.86 50.6967 306.582 79.8864 326.086C109.076 345.59 143.394 356 178.5 356" stroke="#63BDFF" stroke-opacity="0.35" stroke-width="2"/>
<path d="M356 178.5C356 143.394 345.59 109.076 326.086 79.8864C306.582 50.6967 278.86 27.946 246.426 14.5115C213.992 1.07691 178.303 -2.43818 143.871 4.41069C109.44 11.2596 77.8125 28.1648 52.9886 52.9886C28.1648 77.8125 11.2596 109.44 4.41069 143.871C-2.43818 178.303 1.07691 213.992 14.5115 246.426C27.946 278.86 50.6967 306.582 79.8864 326.086C109.076 345.59 143.394 356 178.5 356" stroke="#38DCF5" stroke-width="2" stroke-linecap="round" stroke-dasharray="100 100"/>
</g>
<path d="M178 360C180.209 360 182 358.209 182 356C182 353.791 180.209 352 178 352C175.791 352 174 353.791 174 356C174 358.209 175.791 360 178 360Z" fill="#FF6363"/>
<path d="M344 120C346.209 120 348 118.209 348 116C348 113.791 346.209 112 344 112C341.791 112 340 113.791 340 116C340 118.209 341.791 120 344 120Z" fill="#FF6363"/>
<path d="M344 120C346.209 120 348 118.209 348 116C348 113.791 346.209 112 344 112C341.791 112 340 113.791 340 116C340 118.209 341.791 120 344 120Z" fill="#FF6363"/>
</svg>
