<svg width="506" height="283" viewBox="0 0 506 283" fill="none" xmlns="http://www.w3.org/2000/svg">
<path d="M288.462 141.416L336.718 190.189C363.633 217.393 407.273 217.393 434.188 190.189C461.104 162.985 461.104 118.879 434.188 91.6747C407.273 64.4708 363.633 64.4708 336.718 91.6747L287.983 140.932L252.834 176.457L204.099 225.714C157.771 272.539 82.6594 272.539 36.3318 225.714C-9.99601 178.891 -9.99601 102.973 36.3318 56.1493C82.6594 9.32523 157.771 9.32522 204.099 56.1493L252.392 104.96M253.211 176.838L301.569 225.714C347.897 272.539 423.009 272.539 469.337 225.714C515.664 178.891 515.664 102.973 469.337 56.1493C423.009 9.32523 347.897 9.32522 301.569 56.1493L252.834 105.406L217.685 140.932L168.951 190.189C142.035 217.393 98.3961 217.393 71.4806 190.189C44.5649 162.985 44.5649 118.879 71.4805 91.6747C98.3961 64.4708 142.035 64.4708 168.951 91.6747L217.243 140.485" stroke="#2980D6" stroke-opacity="0.1" stroke-width="1.35657" stroke-dasharray="406.97 406.97"/>
<path fill-rule="evenodd" clip-rule="evenodd" d="M35.8507 56.3687C82.4433 9.27686 157.986 9.27683 204.577 56.3687L252.833 105.141L301.089 56.3687C347.681 9.27683 423.222 9.27686 469.814 56.3687C516.407 103.46 516.407 179.811 469.814 226.903C423.222 273.995 347.681 273.995 301.089 226.903L252.833 178.131L204.577 226.903C157.986 273.995 82.4433 273.995 35.8507 226.903C-10.7419 179.811 -10.7419 103.46 35.8507 56.3687ZM288.94 141.636L337.196 190.408C363.848 217.345 407.056 217.345 433.707 190.408C460.358 163.472 460.358 119.8 433.707 92.8636C407.056 65.9273 363.848 65.9273 337.196 92.8636L288.94 141.636ZM216.725 141.636L168.469 92.8636C141.819 65.9273 98.6095 65.9273 71.9587 92.8636C45.308 119.8 45.3082 163.472 71.9587 190.408C98.6095 217.345 141.819 217.345 168.469 190.408L216.725 141.636Z" fill="url(#paint0_radial_1_44139)"/>
<path d="M246.234 184.524L293.271 136.973L334.513 178.668L287.218 225.951L246.234 184.524Z" fill="url(#paint1_linear_1_44139)"/>
<path d="M259.075 98.5815L211.024 147.158L169.781 105.463L218.093 57.1543L259.075 98.5815Z" fill="url(#paint2_linear_1_44139)"/>
<defs>
<radialGradient id="paint0_radial_1_44139" cx="0" cy="0" r="1" gradientTransform="matrix(645.087 211.847 -79.6485 247.759 135.658 88.7122)" gradientUnits="userSpaceOnUse">
<stop stop-color="#346290" stop-opacity="0.42"/>
<stop offset="0.851531" stop-color="#346290" stop-opacity="0.21"/>
</radialGradient>
<linearGradient id="paint1_linear_1_44139" x1="271.464" y1="159.284" x2="311.194" y2="201.391" gradientUnits="userSpaceOnUse">
<stop stop-color="#05010D"/>
<stop offset="1" stop-color="#05010D" stop-opacity="0"/>
</linearGradient>
<linearGradient id="paint2_linear_1_44139" x1="234.202" y1="123.99" x2="194.472" y2="81.8813" gradientUnits="userSpaceOnUse">
<stop stop-color="#05010D"/>
<stop offset="1" stop-color="#05010D" stop-opacity="0"/>
</linearGradient>
</defs>
</svg>
