<svg width="29" height="15" viewBox="0 0 29 15" fill="none" xmlns="http://www.w3.org/2000/svg">
<mask id="mask0_1_44298" style="mask-type:alpha" maskUnits="userSpaceOnUse" x="0" y="0" width="29" height="15">
<rect width="28.67" height="15" fill="black"/>
</mask>
<g mask="url(#mask0_1_44298)">
<rect width="28.67" height="15" rx="7.5" fill="url(#paint0_linear_1_44298)"/>
</g>
<path d="M6.79901 10.5V3.22727H9.39134C9.95715 3.22727 10.4259 3.33026 10.7976 3.53622C11.1693 3.74219 11.4474 4.02391 11.6321 4.38139C11.8168 4.73651 11.9091 5.1366 11.9091 5.58168C11.9091 6.02912 11.8156 6.43158 11.6286 6.78906C11.4439 7.14418 11.1645 7.4259 10.7905 7.63423C10.4188 7.8402 9.95123 7.94318 9.38778 7.94318H7.60511V7.01278H9.28835C9.64583 7.01278 9.93584 6.95123 10.1584 6.82812C10.3809 6.70265 10.5443 6.5322 10.6484 6.31676C10.7526 6.10133 10.8047 5.8563 10.8047 5.58168C10.8047 5.30705 10.7526 5.06321 10.6484 4.85014C10.5443 4.63707 10.3797 4.47017 10.1548 4.34943C9.93229 4.22869 9.63873 4.16832 9.27415 4.16832H7.89631V10.5H6.79901ZM13.3103 10.5V5.04545H14.3365V5.91193H14.3934C14.4928 5.61837 14.668 5.38755 14.9189 5.21946C15.1722 5.04901 15.4587 4.96378 15.7783 4.96378C15.8446 4.96378 15.9227 4.96615 16.0127 4.97088C16.105 4.97562 16.1772 4.98153 16.2293 4.98864V6.00426C16.1867 5.99242 16.1109 5.9794 16.002 5.9652C15.8931 5.94863 15.7842 5.94034 15.6753 5.94034C15.4244 5.94034 15.2007 5.99361 15.0042 6.10014C14.81 6.20431 14.6561 6.34991 14.5425 6.53693C14.4289 6.72159 14.3721 6.93229 14.3721 7.16903V10.5H13.3103ZM19.4504 10.6101C18.9391 10.6101 18.4928 10.4929 18.1116 10.2585C17.7305 10.0241 17.4346 9.69626 17.2239 9.27486C17.0132 8.85346 16.9078 8.36103 16.9078 7.79759C16.9078 7.23177 17.0132 6.73698 17.2239 6.31321C17.4346 5.88944 17.7305 5.56037 18.1116 5.32599C18.4928 5.09162 18.9391 4.97443 19.4504 4.97443C19.9618 4.97443 20.408 5.09162 20.7892 5.32599C21.1704 5.56037 21.4663 5.88944 21.677 6.31321C21.8877 6.73698 21.993 7.23177 21.993 7.79759C21.993 8.36103 21.8877 8.85346 21.677 9.27486C21.4663 9.69626 21.1704 10.0241 20.7892 10.2585C20.408 10.4929 19.9618 10.6101 19.4504 10.6101ZM19.454 9.71875C19.7854 9.71875 20.06 9.63116 20.2778 9.45597C20.4956 9.28078 20.6566 9.04759 20.7608 8.75639C20.8673 8.4652 20.9206 8.14441 20.9206 7.79403C20.9206 7.44602 20.8673 7.12642 20.7608 6.83523C20.6566 6.54167 20.4956 6.30611 20.2778 6.12855C20.06 5.95099 19.7854 5.86222 19.454 5.86222C19.1202 5.86222 18.8432 5.95099 18.623 6.12855C18.4052 6.30611 18.243 6.54167 18.1365 6.83523C18.0323 7.12642 17.9803 7.44602 17.9803 7.79403C17.9803 8.14441 18.0323 8.4652 18.1365 8.75639C18.243 9.04759 18.4052 9.28078 18.623 9.45597C18.8432 9.63116 19.1202 9.71875 19.454 9.71875Z" fill="white" fill-opacity="0.6"/>
<defs>
<linearGradient id="paint0_linear_1_44298" x1="-0.864849" y1="4.70756" x2="29.5348" y2="10.2924" gradientUnits="userSpaceOnUse">
<stop offset="0.0052" stop-color="#FF5B37"/>
<stop offset="1" stop-color="#AB0052"/>
</linearGradient>
</defs>
</svg>
