<svg width="16" height="18" viewBox="0 0 16 18" fill="none" xmlns="http://www.w3.org/2000/svg">
<path d="M12.9973 17.0475C12.0285 17.9725 10.9698 17.825 9.95104 17.3875C8.87354 16.9412 7.88479 16.9212 6.74729 17.3875C5.32229 17.9913 4.57229 17.8162 3.72104 17.0475C-1.10521 12.1587 -0.392708 4.7125 5.08604 4.44C6.42104 4.5075 7.35104 5.15875 8.13229 5.2175C9.29854 4.98375 10.416 4.31375 11.6623 4.40125C13.156 4.5175 14.2835 5.10125 15.0248 6.15125C11.9398 7.96875 12.671 11.9638 15.4998 13.0813C14.936 14.54 14.2035 15.9888 12.9873 17.0575L12.9973 17.0475ZM8.03354 4.38125C7.88354 2.21375 9.67479 0.425 11.7323 0.25C12.0185 2.7575 9.41729 4.625 8.03229 4.38125H8.03354Z" fill="white"/>
</svg>
