<svg width="21" height="21" viewBox="0 0 21 21" fill="none" xmlns="http://www.w3.org/2000/svg">
<path d="M13.875 7.125C13.875 7.125 10.2975 10.935 9.375 13.875L7.125 11.625M19.875 10.5C19.875 12.9864 18.8873 15.371 17.1291 17.1291C15.371 18.8873 12.9864 19.875 10.5 19.875C8.0136 19.875 5.62903 18.8873 3.87087 17.1291C2.11272 15.371 1.125 12.9864 1.125 10.5C1.125 8.0136 2.11272 5.62903 3.87087 3.87087C5.62903 2.11272 8.0136 1.125 10.5 1.125C12.9864 1.125 15.371 2.11272 17.1291 3.87087C18.8873 5.62903 19.875 8.0136 19.875 10.5Z" stroke="white" stroke-opacity="0.6" stroke-width="2.25" stroke-linecap="round" stroke-linejoin="round"/>
</svg>
